<?xml version="1.0" encoding="utf-8"?>
<!-- Generator: Adobe Illustrator 26.1.0, SVG Export Plug-In . SVG Version: 6.00 Build 0)  -->
<svg version="1.1" id="Lodestar_x5F_Logo_x5F_FC_x5F_On_x5F_Dark_x5F_AW"
	 xmlns="http://www.w3.org/2000/svg" xmlns:xlink="http://www.w3.org/1999/xlink" x="0px" y="0px" viewBox="0 0 1365 299.278"
	 style="enable-background:new 0 0 1365 299.278;" xml:space="preserve">
<style type="text/css">
	.st0{fill:#E5D540;}
	.st1{fill:#EAEFF6;}
</style>
<g>
	<g>
		<g>
			<path class="st0" d="M149.632,39.058c3.694,14.063,9.271,27.384,16.51,39.548c2.745-2.15,5.429-4.183,8.026-6.082
				C161.751,51.178,154.616,26.39,154.616,0h-9.968c0,26.39-7.135,51.178-19.552,72.524c2.596,1.899,5.281,3.946,8.025,6.082
				C140.36,66.442,145.938,53.121,149.632,39.058z"/>
			<path class="st0" d="M226.754,125.096c-2.937-1.647-5.786-3.442-8.529-5.34c-2.996-2.003-5.83-4.139-8.634-6.379
				c-2.64-2.047-5.192-4.183-7.684-6.482c-3.293-3.041-6.482-6.231-9.524-9.524c-2.596,1.839-5.28,3.886-7.981,6.037
				c3.59,4.035,7.432,7.877,11.467,11.422c2.447,2.24,4.984,4.435,7.625,6.483c2.788,2.239,5.681,4.346,8.633,6.378
				c2.789,1.899,5.637,3.694,8.53,5.429c12.223,7.239,25.485,12.817,39.547,16.511c-14.062,3.694-27.339,9.271-39.547,16.51
				c-2.893,1.75-5.741,3.545-8.53,5.429c-2.937,2.048-5.829,4.139-8.633,6.379c-2.641,2.047-5.192,4.242-7.625,6.483
				c-4.034,3.545-7.877,7.387-11.467,11.422c2.7,2.15,5.385,4.183,7.981,6.037c3.042-3.294,6.231-6.483,9.524-9.524
				c2.492-2.299,5.044-4.435,7.684-6.483c2.789-2.239,5.637-4.391,8.634-6.378c2.744-1.899,5.592-3.694,8.529-5.34
				c21.347-12.416,46.09-19.552,72.524-19.552v-9.968C272.844,144.648,248.101,137.512,226.754,125.096z"/>
			<path class="st0" d="M81.053,179.508c2.996,2.002,5.83,4.139,8.634,6.378c2.64,2.048,5.192,4.183,7.684,6.483
				c3.293,3.041,6.483,6.23,9.524,9.524c2.596-1.839,5.28-3.887,7.981-6.037c-3.59-4.035-7.432-7.877-11.467-11.422
				c-2.448-2.24-4.984-4.436-7.625-6.483c-2.788-2.24-5.681-4.347-8.633-6.379c-2.789-1.899-5.637-3.694-8.529-5.429
				c-12.224-7.239-25.485-12.816-39.548-16.51c14.063-3.694,27.339-9.272,39.548-16.511c2.892-1.75,5.74-3.545,8.529-5.429
				c2.937-2.047,5.829-4.139,8.633-6.378c2.641-2.047,5.192-4.242,7.625-6.483c4.035-3.545,7.877-7.387,11.467-11.422
				c-2.7-2.151-5.385-4.183-7.981-6.037c-3.041,3.293-6.231,6.483-9.524,9.524c-2.492,2.299-5.044,4.435-7.684,6.482
				c-2.789,2.24-5.637,4.391-8.634,6.379c-2.744,1.899-5.592,3.694-8.529,5.34C51.178,137.512,26.434,144.648,0,144.648v9.968
				c26.434,0,51.178,7.135,72.524,19.552C75.461,175.813,78.309,177.608,81.053,179.508z"/>
			<path class="st0" d="M149.632,260.22c-3.694-14.063-9.272-27.384-16.511-39.548c-2.744,2.15-5.429,4.183-8.025,6.082
				c12.416,21.346,19.552,46.134,19.552,72.524h9.968c0-26.39,7.135-51.178,19.552-72.524c-2.596-1.899-5.281-3.946-8.026-6.082
				C158.903,232.836,153.325,246.157,149.632,260.22z"/>
			<path class="st0" d="M223.951,187.696c-2.937,1.988-5.83,4.139-8.634,6.438c12.372,18.602,18.053,33.362,20.546,41.743
				c-8.381-2.492-23.141-8.174-41.743-20.545c-2.64-1.795-5.385-3.694-8.233-5.741c-2.596-1.899-5.192-3.886-7.936-6.082
				c-2.492-2.003-5.088-4.139-7.729-6.379c-1.839-1.602-3.738-3.293-5.681-5.043h-0.045c-2.388-2.196-4.791-4.435-7.24-6.839
				l24.788-24.788l3.189-3.189c2.388,2.448,4.688,4.895,6.839,7.239h0.044c1.691,1.943,3.397,3.842,4.985,5.741
				c2.788-2.24,5.681-4.391,8.633-6.379c-1.899-2.24-3.886-4.54-6.082-6.883c-2.151-2.344-4.391-4.896-6.779-7.329
				c2.388-2.448,4.643-4.984,6.779-7.328c2.196-2.344,4.183-4.643,6.082-6.883c-2.937-2.003-5.829-4.139-8.633-6.379
				c-1.602,1.899-3.294,3.798-4.985,5.741h-0.044c-2.151,2.344-4.436,4.791-6.839,7.239l-3.189-3.189l-24.788-24.788
				c2.448-2.388,4.836-4.643,7.24-6.839h0.045c1.943-1.75,3.842-3.442,5.681-5.044c2.64-2.239,5.237-4.391,7.729-6.378
				c2.744-2.196,5.34-4.183,7.936-6.082c2.848-2.048,5.593-3.946,8.233-5.741c18.602-12.372,33.362-18.053,41.743-20.545
				c-2.493,8.381-8.174,23.142-20.546,41.744c2.789,2.299,5.682,4.435,8.634,6.437c21.495-31.967,24.239-53.521,24.388-54.723
				l0.801-6.735l-6.734,0.801c-1.202,0.148-22.741,2.893-54.723,24.388c-2.64,1.75-5.385,3.634-8.173,5.74
				c-2.596,1.899-5.237,3.887-7.937,6.082c-2.537,1.988-5.132,4.139-7.788,6.438c-2.24,1.839-4.539,3.887-6.838,6.037h-0.045
				c-2.388,2.151-4.791,4.436-7.24,6.839l-0.045-0.045l-0.045,0.045c-2.448-2.388-4.836-4.688-7.239-6.839h-0.045
				c-2.299-2.15-4.583-4.183-6.838-6.037c-2.641-2.299-5.237-4.435-7.788-6.438c-2.7-2.195-5.34-4.183-7.937-6.082
				c-2.788-2.091-5.533-3.99-8.173-5.74C79.585,53.863,58.031,51.118,56.829,50.97l-6.735-0.801l0.801,6.735
				c0.148,1.202,2.893,22.741,24.387,54.723c2.937-1.988,5.83-4.139,8.633-6.437C71.545,86.587,65.863,71.827,63.371,63.445
				c8.381,2.492,23.141,8.174,41.743,20.545c2.64,1.795,5.385,3.694,8.233,5.741c2.596,1.899,5.191,3.886,7.936,6.082
				c2.492,2.002,5.088,4.139,7.729,6.378c1.839,1.602,3.738,3.294,5.681,5.044h0.045c2.388,2.196,4.791,4.435,7.24,6.839
				l-24.788,24.788L114,142.051c-2.388-2.448-4.688-4.895-6.839-7.239h-0.045c-1.691-1.943-3.396-3.842-4.984-5.741
				c-2.788,2.24-5.681,4.391-8.633,6.379c1.899,2.239,3.886,4.539,6.082,6.883c2.15,2.344,4.391,4.896,6.779,7.328
				c-2.388,2.448-4.643,4.985-6.779,7.329c-2.196,2.343-4.183,4.642-6.082,6.883c2.937,2.003,5.829,4.139,8.633,6.379
				c1.602-1.899,3.294-3.798,4.984-5.741h0.045c2.151-2.344,4.436-4.791,6.839-7.239l3.189,3.189l24.788,24.788
				c-2.448,2.388-4.837,4.643-7.24,6.839h-0.045c-1.943,1.75-3.842,3.442-5.681,5.043c-2.64,2.24-5.237,4.391-7.729,6.379
				c-2.745,2.196-5.34,4.183-7.936,6.082c-2.848,2.047-5.593,3.946-8.233,5.741c-18.602,12.371-33.362,18.053-41.743,20.545
				c2.492-8.381,8.174-23.142,20.545-41.743c-2.788-2.299-5.681-4.435-8.633-6.438c-21.495,31.968-24.239,53.522-24.387,54.723
				l-0.801,6.734l6.735-0.801c1.202-0.148,22.741-2.893,54.723-24.388c2.64-1.75,5.385-3.634,8.173-5.74
				c2.596-1.899,5.237-3.887,7.937-6.083c2.537-1.988,5.132-4.138,7.788-6.437c2.239-1.839,4.539-3.887,6.838-6.038h0.045
				c2.388-2.15,4.791-4.435,7.239-6.838l0.045,0.045l0.045-0.045c2.448,2.388,4.836,4.688,7.24,6.838h0.045
				c2.299,2.151,4.583,4.183,6.838,6.038c2.64,2.299,5.237,4.435,7.788,6.437c2.7,2.196,5.34,4.183,7.937,6.083
				c2.788,2.091,5.533,3.99,8.173,5.74c31.967,21.495,53.522,24.239,54.723,24.388l6.734,0.801l-0.801-6.734
				C248.189,241.217,245.445,219.678,223.951,187.696z M152.88,174.478l-3.248,3.249l-3.249-3.249l-21.598-21.598l-3.248-3.248
				l3.248-3.249l21.598-21.598l3.249-3.248l3.248,3.248l21.598,21.598l3.249,3.249l-3.249,3.248L152.88,174.478z"/>
		</g>
	</g>
	<g>
		<polygon class="st1" points="393.208,81.793 372.273,81.793 372.273,217.485 456.79,217.485 456.79,197.325 393.208,197.325 		"/>
		<path class="st1" d="M588.818,99.82c-5.944-6.332-12.987-11.243-21.129-14.732c-8.012-3.489-16.8-5.234-26.363-5.234
			s-18.415,1.745-26.557,5.234c-8.013,3.489-15.055,8.4-21.129,14.732c-5.945,6.203-10.597,13.57-13.957,22.099
			c-3.231,8.399-4.846,17.64-4.846,27.72s1.615,19.384,4.846,27.914c3.36,8.4,8.013,15.766,13.957,22.098
			c6.074,6.203,13.116,11.049,21.129,14.538c8.142,3.489,16.994,5.234,26.557,5.234s18.351-1.745,26.363-5.234
			c8.142-3.489,15.185-8.4,21.129-14.732c6.074-6.332,10.727-13.698,13.957-22.098c3.36-8.529,5.04-17.769,5.04-27.72
			s-1.68-19.126-5.04-27.526C599.544,113.583,594.892,106.153,588.818,99.82z M583.003,169.411
			c-2.197,5.945-5.299,11.178-9.305,15.702c-4.007,4.394-8.788,7.818-14.345,10.274c-5.428,2.455-11.437,3.683-18.027,3.683
			c-6.591,0-12.665-1.228-18.222-3.683c-5.428-2.456-10.209-5.88-14.345-10.274c-4.006-4.394-7.107-9.628-9.304-15.702
			c-2.197-6.074-3.296-12.665-3.296-19.772c0-7.237,1.099-13.827,3.296-19.772c2.196-6.074,5.298-11.308,9.304-15.702
			c4.136-4.394,8.917-7.818,14.345-10.274c5.557-2.455,11.631-3.683,18.222-3.683c6.591,0,12.6,1.228,18.027,3.683
			c5.557,2.456,10.338,5.945,14.345,10.468c4.006,4.394,7.107,9.627,9.305,15.701c2.326,5.945,3.489,12.471,3.489,19.579
			S585.329,163.337,583.003,169.411z"/>
		<path class="st1" d="M735.604,100.596c-5.555-6.074-12.277-10.727-20.16-13.957c-7.754-3.231-16.476-4.846-26.169-4.846h-53.114
			v135.693h53.114c9.692,0,18.48-1.615,26.363-4.846c7.883-3.231,14.535-7.818,19.966-13.763
			c5.555-6.074,9.825-13.246,12.796-21.517c2.971-8.4,4.453-17.64,4.453-27.72s-1.482-19.255-4.453-27.526
			C745.429,113.842,741.159,106.67,735.604,100.596z M728.625,169.605c-1.939,5.945-4.782,10.984-8.529,15.12
			c-3.618,4.006-8.142,7.107-13.569,9.305c-5.299,2.196-11.373,3.295-18.222,3.295h-31.21v-95.372h31.21
			c6.849,0,12.923,1.099,18.222,3.295c5.298,2.197,9.821,5.363,13.569,9.499c3.748,4.135,6.591,9.175,8.529,15.12
			c1.942,5.815,2.905,12.406,2.905,19.772C731.531,157.005,730.567,163.661,728.625,169.605z"/>
		<polygon class="st1" points="781.167,217.485 866.651,217.485 866.651,197.325 802.102,197.325 802.102,157.974 855.994,157.974 
			855.994,137.815 802.102,137.815 802.102,101.953 866.651,101.953 866.651,81.793 781.167,81.793 		"/>
		<path class="st1" d="M979.712,153.322c-3.876-3.231-8.591-6.01-14.146-8.336c-5.562-2.455-11.891-4.458-19.001-6.009
			c-5.037-1.034-9.365-2.197-12.986-3.489c-3.621-1.422-6.526-2.972-8.723-4.653c-2.066-1.809-3.621-3.812-4.65-6.009
			c-1.037-2.326-1.555-4.846-1.555-7.56c0-3.747,1.037-6.978,3.102-9.692c2.197-2.843,5.168-5.04,8.92-6.591
			c3.745-1.551,8.139-2.326,13.176-2.326c4.394,0,8.533,0.775,12.409,2.326c3.876,1.421,7.431,3.618,10.664,6.591
			c3.226,2.843,6.139,6.397,8.723,10.662l14.73-14.538c-2.971-5.169-6.723-9.499-11.241-12.988
			c-4.526-3.618-9.694-6.332-15.511-8.142c-5.818-1.809-12.212-2.713-19.19-2.713c-6.591,0-12.73,0.969-18.417,2.907
			c-5.686,1.81-10.657,4.458-14.927,7.948c-4.132,3.36-7.431,7.366-9.884,12.019c-2.328,4.652-3.489,9.692-3.489,15.12
			c0,5.557,0.839,10.597,2.518,15.12c1.679,4.394,4.27,8.335,7.759,11.824c3.489,3.489,7.818,6.397,12.986,8.723
			c5.168,2.326,11.241,4.2,18.22,5.622c4.394,0.775,8.27,1.745,11.628,2.907c3.365,1.034,6.27,2.261,8.723,3.683
			c2.591,1.421,4.657,2.972,6.204,4.652c1.679,1.68,2.913,3.554,3.686,5.621c0.774,2.068,1.161,4.265,1.161,6.591
			c0,3.489-1.161,6.591-3.489,9.305c-2.328,2.713-5.489,4.846-9.497,6.396c-4.007,1.551-8.467,2.326-13.373,2.326
			c-8.015,0-14.927-1.745-20.745-5.234c-5.818-3.49-11.891-9.757-18.219-18.803l-14.343,16.477c4,5.815,8.526,10.726,13.57,14.733
			c5.168,3.877,10.854,6.784,17.052,8.723c6.336,1.939,13.183,2.907,20.548,2.907c10.212,0,19-1.68,26.366-5.039
			c7.365-3.489,13.051-8.4,17.059-14.733c4.007-6.332,6.007-13.827,6.007-22.486c0-4.653-1.029-8.982-3.102-12.988
			C986.501,160.171,983.588,156.553,979.712,153.322z"/>
		<polygon class="st1" points="1008.99,101.953 1046.984,101.953 1046.984,217.485 1067.919,217.485 1067.919,101.953 
			1107.073,101.953 1107.073,81.793 1008.99,81.793 		"/>
		<path class="st1" d="M1161.615,81.793l-52.527,135.693h21.322l12.829-33.729h56.765l12.788,33.729h22.293l-52.14-135.693H1161.615
			z M1150.906,163.596l10.322-27.138c0.774-2.197,1.745-4.911,2.912-8.142c1.161-3.36,2.321-6.914,3.489-10.662
			c1.292-3.748,2.453-7.302,3.489-10.662c0.207-0.599,0.4-1.156,0.595-1.718c0.06,0.186,0.117,0.362,0.179,0.555
			c1.161,3.489,2.453,7.366,3.876,11.631c1.423,4.264,2.65,8.141,3.686,11.63c1.161,3.489,1.934,5.686,2.321,6.591l10.583,27.914
			H1150.906z"/>
		<path class="st1" d="M1365,217.679l-31.514-54.435c1.627-0.682,3.216-1.465,4.762-2.361c6.46-3.878,11.635-8.982,15.511-15.314
			s5.81-13.181,5.81-20.547c0-8.142-1.934-15.443-5.81-21.905c-3.876-6.591-9.11-11.76-15.701-15.508
			c-6.467-3.877-13.57-5.815-21.322-5.815h-57.768v135.693h20.935v-50.982h30.985l28.717,50.982L1365,217.679z M1279.903,101.953
			h33.344c4.781,0,9.044,0.969,12.789,2.907c3.876,1.939,6.854,4.653,8.92,8.142c2.197,3.36,3.292,7.302,3.292,11.824
			c0,4.006-0.84,7.689-2.518,11.049c-1.679,3.231-4.008,5.815-6.978,7.754c-2.971,1.809-6.336,2.713-10.081,2.713h-38.767V101.953z"
			/>
	</g>
</g>
</svg>
